<?xml version="1.0" standalone="no"?>
<!DOCTYPE svg PUBLIC "-//W3C//DTD SVG 20010904//EN"
 "http://www.w3.org/TR/2001/REC-SVG-20010904/DTD/svg10.dtd">
<svg version="1.0" xmlns="http://www.w3.org/2000/svg"
 width="877.000000pt" height="633.000000pt" viewBox="0 0 877.000000 633.000000"
 preserveAspectRatio="xMidYMid meet">

<g transform="translate(0.000000,633.000000) scale(0.100000,-0.100000)"
fill="#000000" stroke="none">
<path d="M1755 5471 c-73 -26 -105 -44 -155 -89 -84 -75 -140 -201 -140 -318
0 -37 65 -280 237 -880 226 -794 236 -833 237 -919 1 -88 -4 -109 -238 -949
l-238 -859 4 -86 c3 -70 10 -99 35 -154 63 -133 193 -225 334 -235 38 -2 124
1 191 7 68 6 461 41 873 76 413 36 854 75 980 87 354 34 618 30 1125 -15 446
-40 500 -45 935 -82 165 -14 401 -35 525 -46 344 -30 432 -34 487 -19 125 34
223 116 277 230 24 52 31 81 34 150 l4 85 -238 865 c-184 672 -238 882 -242
940 -4 73 1 93 228 885 127 446 236 834 242 863 21 103 -19 241 -98 338 -65
80 -200 144 -305 144 -27 0 -547 -44 -1156 -97 -1461 -127 -1250 -127 -2689 0
-600 53 -1115 97 -1145 97 -30 -1 -76 -9 -104 -19z m3077 -1650 c31 -12 61
-27 66 -34 12 -15 -25 -249 -41 -259 -6 -3 -22 -1 -36 7 -74 38 -190 41 -273
8 -144 -58 -182 -320 -63 -438 69 -70 191 -88 311 -46 32 12 61 18 65 13 4 -4
14 -50 23 -102 9 -52 19 -107 22 -123 5 -25 1 -29 -48 -52 -169 -77 -395 -72
-550 12 -117 64 -221 206 -248 340 -20 92 -8 274 22 354 60 162 187 281 353
331 89 26 317 20 397 -11z m-1601 -241 c68 -132 126 -240 129 -240 3 0 59 108
125 240 l120 240 172 0 173 0 -2 -532 -3 -533 -170 0 -170 0 -3 250 -3 250
-78 -150 c-44 -82 -84 -156 -91 -162 -6 -8 -36 -13 -75 -13 -76 0 -67 -10
-176 198 l-64 122 -5 -247 -5 -248 -167 -3 -168 -2 0 535 0 535 169 0 169 0
123 -240z m2646 -287 c83 -290 149 -531 147 -535 -3 -4 -90 -8 -194 -8 -216 0
-199 -8 -219 100 -20 110 -6 100 -146 100 l-123 0 -23 -97 -24 -98 -190 0
c-121 0 -189 4 -189 10 1 6 66 245 145 533 l144 522 260 0 260 0 152 -527z"/>
<path d="M5422 3358 c-23 -106 -42 -196 -42 -200 0 -9 170 -11 170 -3 0 6 -79
376 -83 388 -1 4 -21 -79 -45 -185z"/>
</g>
</svg>
