<?xml version="1.0" standalone="no"?>
<!DOCTYPE svg PUBLIC "-//W3C//DTD SVG 20010904//EN"
 "http://www.w3.org/TR/2001/REC-SVG-20010904/DTD/svg10.dtd">
<svg version="1.0" xmlns="http://www.w3.org/2000/svg"
 width="600.000000pt" height="195.000000pt" viewBox="0 0 600.000000 195.000000"
 preserveAspectRatio="xMidYMid meet">

<g transform="translate(0.000000,195.000000) scale(0.100000,-0.100000)"
fill="#000000" stroke="none">
<path d="M140 1560 l0 -250 55 0 55 0 2 193 3 192 2745 0 2745 0 3 -192 2
-193 55 0 55 0 0 250 0 250 -2860 0 -2860 0 0 -250z"/>
<path d="M1469 1287 c-143 -40 -219 -136 -219 -276 0 -194 172 -332 354 -286
66 17 126 57 126 83 0 30 -38 82 -60 82 -11 0 -37 -9 -57 -20 -49 -26 -100
-25 -153 3 -108 57 -107 209 0 265 55 27 104 28 153 2 20 -11 44 -20 52 -20
21 0 65 51 65 77 0 64 -157 118 -261 90z"/>
<path d="M3385 1275 c-14 -13 -25 -33 -25 -44 0 -12 38 -63 88 -117 48 -53 87
-100 87 -104 0 -5 -39 -52 -87 -105 -49 -54 -88 -105 -88 -114 0 -24 52 -71
78 -71 14 0 47 30 104 95 46 52 88 94 93 94 6 0 44 -41 85 -90 83 -100 101
-114 128 -100 34 19 64 59 58 79 -4 10 -45 61 -91 112 -47 51 -85 97 -85 101
0 4 38 49 85 99 46 51 87 101 91 112 8 28 -41 78 -77 78 -21 0 -39 -15 -82
-67 -31 -38 -69 -81 -86 -98 -27 -25 -33 -27 -44 -15 -7 8 -46 52 -86 98 -81
91 -104 100 -146 57z"/>
<path d="M5001 1274 c-17 -14 -31 -33 -31 -42 0 -10 42 -81 94 -158 l94 -141
-5 -81 c-7 -103 7 -132 67 -132 61 0 70 16 70 126 l0 94 84 123 c110 162 111
163 92 191 -17 26 -69 51 -90 43 -7 -3 -45 -55 -82 -116 -38 -61 -71 -111 -74
-111 -3 1 -30 42 -60 92 -93 153 -102 160 -159 112z"/>
<path d="M596 1274 c-14 -13 -16 -51 -16 -265 0 -240 1 -250 21 -270 17 -17
29 -20 57 -15 19 3 40 10 45 15 6 6 11 74 11 161 1 82 3 150 6 150 3 -1 32
-37 65 -82 33 -45 67 -86 76 -91 33 -21 66 2 131 89 l63 85 3 -148 c2 -137 4
-149 23 -165 24 -20 61 -23 90 -8 18 10 19 24 19 273 0 191 -3 266 -12 275 -7
7 -29 12 -50 12 -46 0 -53 -7 -162 -150 l-80 -104 -20 28 c-12 16 -56 73 -99
127 -74 95 -79 99 -117 99 -22 0 -45 -7 -54 -16z"/>
<path d="M1996 1279 c-10 -6 -46 -70 -81 -143 -34 -72 -86 -180 -114 -239 -57
-118 -60 -145 -16 -165 54 -25 72 -17 105 48 l30 60 113 0 113 0 28 -59 c15
-33 34 -62 42 -65 22 -8 81 19 94 43 9 18 -5 53 -100 247 -60 125 -110 230
-110 235 0 5 -9 18 -20 29 -22 22 -55 25 -84 9z m84 -306 c0 -9 -17 -13 -50
-13 l-50 0 26 52 26 52 24 -40 c13 -21 24 -45 24 -51z"/>
<path d="M2376 1274 c-14 -13 -16 -52 -16 -269 0 -251 0 -254 22 -269 18 -13
54 -16 189 -16 187 0 192 2 187 66 -4 47 -16 52 -155 53 l-103 1 -1 28 c-1 15
-2 108 -3 208 -1 137 -4 185 -15 197 -17 22 -84 22 -105 1z"/>
<path d="M2830 1276 c-8 -11 -11 -66 -8 -198 l3 -183 31 -55 c58 -103 166
-149 276 -116 70 20 120 66 157 145 25 54 26 64 26 229 0 192 0 192 -67 192
-64 0 -68 -12 -68 -186 0 -167 -9 -208 -51 -238 -29 -20 -81 -21 -118 -1 -51
26 -61 66 -61 235 0 85 -5 160 -10 171 -13 24 -91 27 -110 5z"/>
<path d="M3965 1273 c-15 -14 -16 -37 -12 -182 5 -184 13 -221 60 -283 49 -64
107 -93 187 -93 103 1 179 50 224 145 18 40 21 67 24 223 3 128 0 182 -8 192
-15 18 -91 20 -108 3 -8 -8 -12 -60 -12 -167 0 -135 -3 -160 -20 -196 -40 -83
-148 -89 -192 -12 -9 14 -15 83 -18 195 -4 139 -8 175 -20 182 -24 16 -87 12
-105 -7z"/>
<path d="M4533 1279 c-10 -10 -13 -79 -13 -276 0 -249 1 -263 19 -273 31 -16
69 -12 91 10 16 16 20 33 20 80 l0 60 64 0 64 0 28 -67 c15 -38 32 -74 38 -81
21 -28 116 8 116 44 0 6 -14 45 -31 85 -24 56 -29 77 -20 89 70 98 49 238 -47
305 -43 29 -47 30 -180 33 -101 2 -140 0 -149 -9z m267 -144 c24 -22 26 -71 3
-97 -13 -14 -31 -18 -85 -18 l-68 0 0 63 c0 35 3 67 8 71 14 15 120 1 142 -19z"/>
<path d="M140 390 l0 -250 2860 0 2860 0 0 250 0 250 -55 0 -55 0 0 -195 0
-195 -2748 2 -2747 3 -3 193 -2 192 -55 0 -55 0 0 -250z"/>
</g>
</svg>
